PathFileType	4	(X/Y/Z)	/Users/itak/Documents/Research/Walk-IL/dataset/trc/00227_00009.trc
DataRate	CameraRate	NumFrames	NumMarkers	Units	OrigDataRate	OrigDataStartFrame	OrigNumFrames
100.000000	100.000000	4	53	mm	100.000000	430	861
Frame#	Time	RPSI			LPSI			L3			STRN			T10			C7			CLAV			RBAK			LBAK			LSHO			LUPA			LAEL			LAOL			LWTS			LWPS			LFRA			LIFD			LHPS			LHTS			RSHO			RUPA			RAEL			RAOL			RWTS			RWPS			RFRA			RIFD			RHTS			RHPS			RBHD			LFHD			RFHD			LBHD			LHIP			RHIP			RASI			LASI			LKNE			LTHI			LANK			LTIP			LTOE			LMT1			LMT5			LHEE			RKNE			RTHI			RANK			RTIP			RTOE			RMT1			RMT5			RHEE			
		X1	Y1	Z1	X2	Y2	Z2	X3	Y3	Z3	X4	Y4	Z4	X5	Y5	Z5	X6	Y6	Z6	X7	Y7	Z7	X8	Y8	Z8	X9	Y9	Z9	X10	Y10	Z10	X11	Y11	Z11	X12	Y12	Z12	X13	Y13	Z13	X14	Y14	Z14	X15	Y15	Z15	X16	Y16	Z16	X17	Y17	Z17	X18	Y18	Z18	X19	Y19	Z19	X20	Y20	Z20	X21	Y21	Z21	X22	Y22	Z22	X23	Y23	Z23	X24	Y24	Z24	X25	Y25	Z25	X26	Y26	Z26	X27	Y27	Z27	X28	Y28	Z28	X29	Y29	Z29	X30	Y30	Z30	X31	Y31	Z31	X32	Y32	Z32	X33	Y33	Z33	X34	Y34	Z34	X35	Y35	Z35	X36	Y36	Z36	X37	Y37	Z37	X38	Y38	Z38	X39	Y39	Z39	X40	Y40	Z40	X41	Y41	Z41	X42	Y42	Z42	X43	Y43	Z43	X44	Y44	Z44	X45	Y45	Z45	X46	Y46	Z46	X47	Y47	Z47	X48	Y48	Z48	X49	Y49	Z49	X50	Y50	Z50	X51	Y51	Z51	X52	Y52	Z52	X53	Y53	Z53	

431	4.3	554.0699462890625	1021.085388183594	-421.0358581542969	488.4864501953125	1028.064331054688	-320.0208129882812	516.6166381835938	1115.891479492188	-355.6328125	302.5992736816406	1298.554809570312	-487.1049499511719	525.3594970703125	1242.524658203125	-358.2171936035156	466.6290588378906	1502.355346679688	-392.6406860351562	322.8880615234375	1417.203247070312	-477.2106323242188	572.37841796875	1366.043090820312	-416.5514831542969	427.973876953125	1467.07373046875	-285.3204956054688	322.3841552734375	1469.29345703125	-285.1842041015625	299.80517578125	1352.619873046875	-203.6164093017578	251.9521484375	1145.226806640625	-191.7384338378906	335.2065124511719	1118.698974609375	-192.8062286376953	174.4885101318359	933.9862670898438	-314.14453125	145.8346710205078	912.6489868164062	-236.6593322753906	209.2494964599609	1043.869018554688	-202.8911285400391	133.3109283447266	745.1915283203125	-333.2267761230469	118.7693481445312	829.9121704101562	-259.9814147949219	115.1037292480469	842.5821533203125	-327.3875122070312	500.1138000488281	1459.781372070312	-568.4288940429688	552.1962890625	1396.457153320312	-616.3795166015625	604.7221069335938	1119.447875976562	-640.4537963867188	584.596435546875	1109.895263671875	-546.6871948242188	479.9103393554688	897.7998046875	-684.4560546875	561.8814086914062	889.7770385742188	-709.729248046875	594.32421875	1051.509399414062	-667.1295166015625	474.8679504394531	703.7632446289062	-698.709228515625	462.9199523925781	777.79052734375	-724.2140502929688	535.134765625	782.0496215820312	-736.7308349609375	431.77587890625	1668.770874023438	-487.7266540527344	207.7605438232422	1670.4716796875	-452.3534851074219	235.0099639892578	1668.761352539062	-548.5890502929688	352.0693054199219	1667.449462890625	-372.0958862304688	325.5032958984375	968.79443359375	-258.0029602050781	528.402587890625	987.7088012695312	-562.3687744140625	426.391845703125	1033.096557617188	-584.0075073242188	268.5284118652344	1016.058349609375	-351.3717346191406	315.8790893554688	491.8771057128906	-387.6538391113281	304.4378967285156	631.5841674804688	-339.8157653808594	448.6941223144531	30.63358116149902	-403.6626586914062	380.2789306640625	265.8410949707031	-385.8380432128906	284.607177734375	40.2057991027832	-553.2116088867188	365.3494567871094	36.34876251220703	-559.9302368164062	328.2857360839844	33.46266555786133	-449.261474609375	526.303466796875	39.91645431518555	-420.9896545410156	393.1170043945312	514.575439453125	-652.7796020507812	436.8056030273438	781.2005004882812	-633.4553833007812	688.4832153320312	151.3716735839844	-492.3734130859375	422.418212890625	403.6431579589844	-627.146240234375	517.2853393554688	48.94273376464844	-548.4310913085938	536.0570068359375	73.910888671875	-486.6047973632812	629.7145385742188	84.74346160888672	-558.0614013671875	700.9719848632812	190.8452301025391	-419.9521789550781	
432	4.31	549.8974609375	1021.5341796875	-425.9912414550781	485.5907897949219	1028.498779296875	-324.0955505371094	513.0924682617188	1116.104736328125	-359.779052734375	297.3711242675781	1298.79638671875	-488.99169921875	521.5237426757812	1242.876831054688	-362.27294921875	462.2889404296875	1502.652465820312	-396.1273193359375	317.7520446777344	1417.446899414062	-479.394287109375	567.7947387695312	1366.305541992188	-421.0779724121094	424.6073608398438	1467.42578125	-288.4118957519531	318.9692077636719	1469.657836914062	-287.4402465820312	296.7433166503906	1352.920043945312	-205.9906921386719	247.8709411621094	1145.675537109375	-194.72607421875	330.9129638671875	1118.655029296875	-196.2328643798828	168.1706390380859	936.4067993164062	-319.0027160644531	139.6878967285156	914.4381713867188	-241.6374206542969	204.3015594482422	1044.766845703125	-206.7126159667969	124.8721694946289	748.1138305664062	-340.00537109375	111.7618942260742	832.2514038085938	-265.7187194824219	108.0361938476562	845.6546020507812	-333.0006103515625	494.1112060546875	1460.1015625	-572.1857299804688	545.816162109375	1396.926025390625	-620.6693115234375	598.403564453125	1120.030883789062	-645.7947387695312	579.242919921875	1110.267700195312	-551.8572998046875	472.9273376464844	898.568359375	-688.9971923828125	554.6875	890.470703125	-715.0342407226562	587.7178344726562	1052.093383789062	-672.4627075195312	467.4716186523438	704.5548706054688	-703.6407470703125	455.3855285644531	778.7042236328125	-728.8460693359375	527.45556640625	782.8256225585938	-742.009765625	426.4786987304688	1669.1611328125	-490.9697570800781	202.7386016845703	1670.51513671875	-453.7929992675781	229.2195587158203	1668.746459960938	-550.2529907226562	347.6704711914062	1667.856689453125	-374.6698303222656	323.5692138671875	968.9156494140625	-259.5947570800781	521.8211059570312	988.4197387695312	-567.170166015625	419.6927490234375	1033.49609375	-586.9563598632812	265.0393676757812	1016.095092773438	-352.0437927246094	315.6404724121094	491.5531311035156	-387.0753479003906	303.9176940917969	631.4502563476562	-339.8220520019531	448.7190856933594	30.67161750793457	-403.7098693847656	380.2681884765625	265.7928771972656	-385.8498840332031	284.6086730957031	40.14644622802734	-553.2755126953125	365.3053588867188	36.26373291015625	-559.9292602539062	328.2934265136719	33.44606399536133	-449.2515258789062	526.3359985351562	39.96137237548828	-420.939208984375	380.5001525878906	516.46142578125	-656.095703125	428.1400146484375	782.3137817382812	-637.5777587890625	672.0630493164062	143.8969573974609	-512.529052734375	408.54296875	404.7415161132812	-633.192138671875	496.6954040527344	47.75473785400391	-567.1762084960938	517.6279296875	69.76457214355469	-504.9189453125	609.5971069335938	81.16456604003906	-578.7456665039062	687.5204467773438	179.9968719482422	-438.9490051269531	
433	4.32	545.6885375976562	1021.97802734375	-430.9403686523438	482.6797790527344	1028.919311523438	-328.1751403808594	509.5808410644531	1116.313842773438	-363.9077758789062	292.09619140625	1298.9716796875	-490.8530578613281	517.6650390625	1243.203979492188	-366.367431640625	457.8915100097656	1502.919921875	-399.6522521972656	312.5736083984375	1417.623046875	-481.5370788574219	563.148193359375	1366.543090820312	-425.6487731933594	421.2137145996094	1467.744995117188	-291.5372619628906	315.5546569824219	1469.966552734375	-289.6889343261719	293.7055969238281	1353.195922851562	-208.3162078857422	243.9633331298828	1146.073120117188	-197.5219116210938	326.7685852050781	1118.587646484375	-199.5110473632812	162.0910949707031	938.804931640625	-323.6415710449219	133.7633819580078	916.1736450195312	-246.4255981445312	199.5667266845703	1045.607055664062	-210.329345703125	116.6778411865234	751.1411743164062	-346.7012023925781	104.9515686035156	834.586181640625	-271.30419921875	101.1476364135742	848.7845458984375	-338.4264526367188	488.01611328125	1460.367797851562	-575.9619750976562	539.3277587890625	1397.338745117188	-624.9832153320312	591.9625244140625	1120.537109375	-651.1426391601562	573.797119140625	1110.596435546875	-557.039306640625	465.8511962890625	899.28173828125	-693.50537109375	547.3452758789062	891.0940551757812	-720.3164672851562	580.9730224609375	1052.607421875	-677.7969970703125	460.0567626953125	705.2738037109375	-708.5263061523438	447.7071533203125	779.5576782226562	-733.4324340820312	519.6278076171875	783.5431518554688	-747.266845703125	421.1787719726562	1669.463623046875	-494.1659851074219	197.733642578125	1670.612060546875	-455.1477661132812	223.4279174804688	1668.822509765625	-551.8243408203125	343.3159790039062	1668.180053710938	-377.1835327148438	321.7124328613281	969.00244140625	-261.1808471679688	515.2885131835938	989.1141357421875	-571.9663696289062	413.0443115234375	1033.846557617188	-589.8998413085938	261.6480712890625	1016.061218261719	-352.7717590332031	315.3079223632812	491.220947265625	-386.6491088867188	303.3607177734375	631.2871704101562	-339.9168701171875	448.7452087402344	30.71532821655273	-403.7648620605469	380.179931640625	265.7330627441406	-385.9658203125	284.6105651855469	40.0750617980957	-553.3567504882812	365.2496032714844	36.16439819335938	-559.939453125	328.2820129394531	33.4503288269043	-449.2327880859375	526.3768310546875	39.99333953857422	-420.8877868652344	368.1123962402344	518.2705688476562	-658.9356689453125	420.3367004394531	783.2706909179688	-641.3739013671875	654.5197143554688	136.1975402832031	-532.5116577148438	394.675537109375	405.7566223144531	-638.7691650390625	474.8763122558594	46.73367309570312	-585.4266967773438	497.9577941894531	65.70366668701172	-522.9031372070312	588.254150390625	77.54022216796875	-598.9901733398438	672.8696899414062	168.6177978515625	-457.881591796875	
434	4.33	541.4312133789062	1022.416137695312	-435.8789978027344	479.7451171875	1029.323364257812	-332.2561950683594	506.0763854980469	1116.521240234375	-368.0185852050781	286.7722778320312	1299.085205078125	-492.6943054199219	513.7696533203125	1243.50732421875	-370.5018615722656	453.4337463378906	1503.156494140625	-403.2140197753906	307.3594360351562	1417.73486328125	-483.6410522460938	558.4353637695312	1366.755126953125	-430.2607116699219	417.7884216308594	1468.0341796875	-294.6954345703125	312.1254272460938	1470.219848632812	-291.9349670410156	290.6900939941406	1353.4501953125	-210.5950622558594	240.2099456787109	1146.423095703125	-200.1455688476562	322.7685546875	1118.5009765625	-202.6369781494141	156.2691192626953	941.1624145507812	-328.0530090332031	128.0650634765625	917.8455810546875	-251.0186767578125	195.0349884033203	1046.38916015625	-213.7516937255859	108.7820281982422	754.2474365234375	-353.2720031738281	98.35684967041016	836.894287109375	-276.7261657714844	94.44258117675781	851.9462280273438	-343.6610412597656	481.8288879394531	1460.583251953125	-579.755615234375	532.7296752929688	1397.695922851562	-629.3189086914062	585.386962890625	1120.9658203125	-656.4860229492188	568.2343139648438	1110.868286132812	-562.232666015625	458.7019958496094	899.9298706054688	-697.9783935546875	539.8568725585938	891.6437377929688	-725.566650390625	574.0816040039062	1053.051513671875	-683.126220703125	452.6118774414062	705.9173583984375	-713.341552734375	439.9040832519531	780.336181640625	-737.9612426757812	511.6724548339844	784.1964111328125	-752.48486328125	415.8579711914062	1669.681884765625	-497.3165588378906	192.731201171875	1670.744262695312	-456.4268798828125	217.6162261962891	1668.968994140625	-553.31005859375	338.9883728027344	1668.41748046875	-379.6443481445312	319.9222412109375	969.0454711914062	-262.7785339355469	508.8071899414062	989.78759765625	-576.7420654296875	406.4364624023438	1034.148803710938	-592.825927734375	258.3443908691406	1015.964599609375	-353.5580444335938	314.8472290039062	490.877685546875	-386.4096069335938	302.7279968261719	631.0934448242188	-340.1249389648438	448.7739562988281	30.76603698730469	-403.8287048339844	379.9933471679688	265.6610107421875	-386.190673828125	284.6125793457031	39.99390411376953	-553.450927734375	365.1784362792969	36.05747222900391	-559.9629516601562	328.2532348632812	33.47584915161133	-449.2003784179688	526.4173583984375	39.9998893737793	-420.858154296875	355.96728515625	519.9990844726562	-661.3491821289062	412.9834899902344	784.1187133789062	-644.926025390625	635.81103515625	128.3495025634766	-552.157958984375	380.8256225585938	406.6931457519531	-643.9074096679688	451.9127502441406	45.94242858886719	-602.9912109375	477.1042175292969	61.85054397583008	-540.3848266601562	565.7435913085938	73.94438171386719	-618.6180419921875	657.0087280273438	156.9537963867188	-476.6764221191406	
